{"title":"R.I.P.D.2013.HDRip.XVID.AC3.HQ.Hive-CM8","uid":8861742,"size":1501122043,"categoryP":"video","categoryS":"movies","magnet":"?xt=urn:btih:6daedea1e3c3c0b3a64d8c16150b4da009c3c614&amp;dn=R.I.P.D.2013.HDRip.XVID.AC3.HQ.Hive-CM8&amp;tr=udp%3A%2F%2Ftracker.openbittorrent.com%3A80&amp;tr=udp%3A%2F%2Fopen.demonii.com%3A1337&amp;tr=udp%3A%2F%2Ftracker.coppersurfer.tk%3A6969&amp;tr=udp%3A%2F%2Fexodus.desync.com%3A6969","seeders":1,"leechers":0,"uploader":"R0thschild","files":4,"time":1377792149,"description":" &lt;a href=&quot;http://www.imdb.com/title/tt0790736/&quot; rel=&quot;nofollow&quot; target=&quot;_NEW&quot;&gt;http://www.imdb.com/title/tt0790736/&lt;/a&gt;\n\nGeneral\nComplete name: R.I.P.D.2013.HDRip.NOSUBS.XVID.AC3-5.1.HQ.Hive-CM8.avi\nFormat: AVI\nFormat/Info: Audio Video Interleave\nFile size: 1.40 GiB\nDuration: 1h 35mn\nOverall bit rate: 2 088 Kbps\nWriting application: Nandub v1.0rc2\nWriting library: Nandub build 1853/release\n\nVideo\nID: 0\nFormat: MPEG-4 Visual\nFormat profile: Advanced Simple@L5\nFormat settings, BVOP: 2\nFormat settings, QPel: Yes\nFormat settings, GMC: No warppoints\nFormat settings, Matrix: Default (H.263)\nMuxing mode: Packed bitstream\nCodec ID: XVID\nCodec ID/Hint: XviD\nDuration: 1h 35mn\nBit rate: 1 695 Kbps\nWidth: 720 pixels\nHeight: 304 pixels\nDisplay aspect ratio: 2.35:1\nFrame rate: 23.976 fps\nColor space: YUV\nChroma subsampling: 4:2:0\nBit depth: 8 bits\nScan type: Progressive\nCompression mode: Lossy\nBits/(Pixel*Frame): 0.323\nStream size: 1.13 GiB (81%)\nWriting library: XviD 1.2.1 (UTC 2008-12-04)\n\nAudio\nID: 1\nFormat: AC-3\nFormat/Info: Audio Coding 3\nMode extension: CM (complete main)\nFormat settings, Endianness: Big\nCodec ID: 2000\nDuration: 1h 35mn\nBit rate mode: Constant\nBit rate: 384 Kbps\nChannel(s): 6 channels\nChannel positions: Front: L C R, Side: L R, LFE\nSampling rate: 48.0 KHz\nBit depth: 16 bits\nCompression mode: Lossy\nStream size: 263 MiB (18%)\nAlignment: Split accross interleaves\nInterleave, duration: 42 ms (1.00 video frame)\nInterleave, preload duration: 500 ms\n\nPlot:\n\nA recently slain cop joins a team of undead police officers working for the Rest in Peace Department and tries to find the man who murdered him\n\nCast:\n\nJeff Bridges ... Roy\nRyan Reynolds ... Nick\nKevin Bacon ... Hayes\nMary-Louise Parker ... Proctor","torrent":{"xt":"urn:btih:6daedea1e3c3c0b3a64d8c16150b4da009c3c614","amp;dn":"R.I.P.D.2013.HDRip.XVID.AC3.HQ.Hive-CM8","amp;tr":["udp%3A%2F%2Ftracker.openbittorrent.com%3A80","udp%3A%2F%2Fopen.demonii.com%3A1337","udp%3A%2F%2Ftracker.coppersurfer.tk%3A6969","udp%3A%2F%2Fexodus.desync.com%3A6969"],"infoHash":"6daedea1e3c3c0b3a64d8c16150b4da009c3c614","infoHashBuffer":{"type":"Buffer","data":[109,174,222,161,227,195,192,179,166,77,140,22,21,11,77,160,9,195,198,20]},"announce":[],"urlList":[]}}